<?xml version="1.0" encoding="UTF-8" standalone="no" ?>
<!DOCTYPE svg PUBLIC "-//W3C//DTD SVG 1.1//EN" "http://www.w3.org/Graphics/SVG/1.1/DTD/svg11.dtd">
<svg xmlns="http://www.w3.org/2000/svg" xmlns:xlink="http://www.w3.org/1999/xlink" version="1.1" width="640" height="640" viewBox="0 0 640 640" xml:space="preserve">
<desc>Created with Fabric.js 5.3.0</desc>
<defs>
</defs>
<g transform="matrix(0.9414019701 -0.182990006 0.3215891843 1.6544329297 382.3660589693 438.9529689455)" id="WL7ht6WTgGKchmJxQ-JRc"  >
<path style="stroke: none; stroke-width: 1; stroke-dasharray: none; stroke-linecap: butt; stroke-dashoffset: 0; stroke-linejoin: miter; stroke-miterlimit: 4; fill: rgb(122,133,135); fill-opacity: 0.35; fill-rule: nonzero; opacity: 1;" vector-effect="non-scaling-stroke"  transform=" translate(-339.5004409173, -357.4445352271)" d="M 556.322 459.821 C 557.838 461.37300000000005 559.323 462.95700000000005 560.973 464.365 C 559.375 462.955 557.831 461.422 556.322 459.821 z M 403.72 397.993 L 314.88300000000004 399.1 L 137.20900000000003 401.16900000000004 L 115 401.294 L 103.895 401.356 L 98.34299999999999 401.387 L 92.26299999999999 401.161 C 87.74699999999999 400.76800000000003 83.31099999999999 399.849 78.99999999999999 398.532 C 88.02899999999998 403.964 98.59699999999998 407.162 109.51999999999998 407.135 L 492.853 406.167 C 492.052 402.96599999999995 491.402 399.71999999999997 490.918 396.433 L 403.72 397.993 z M 560.964 464.372 C 560.969 464.372 560.975 464.373 560.98 464.373 L 560.98 464.372 C 560.975 464.372 560.97 464.372 560.964 464.372 z M 589.255 238.794 C 590.259 241.619 591.074 244.501 591.526 247.42700000000002 C 592.106 251.39600000000002 592.286 255.41700000000003 591.949 259.398 L 590.9409999999999 270.49 L 588.8979999999999 292.607 L 584.5729999999999 336.821 L 582.3989999999999 358.92600000000004 C 581.9329999999999 366.343 580.0059999999999 374.41800000000006 575.7879999999999 380.97300000000007 C 571.6619999999999 387.54800000000006 565.3899999999999 393.1890000000001 557.5859999999999 395.2420000000001 C 555.651 395.74500000000006 553.656 395.9800000000001 551.656 396.0130000000001 L 546.0859999999999 395.9570000000001 L 536.3789999999999 395.8340000000001 C 535.5749999999999 408.06900000000013 536.7299999999999 420.4930000000001 540.5809999999999 432.2100000000001 C 544.5619999999999 444.3370000000001 551.5079999999999 455.5930000000001 560.978 464.3700000000001 C 560.9789999999999 464.3710000000001 560.9799999999999 464.3720000000001 560.981 464.3720000000001 L 560.981 464.3720000000001 L 560.981 464.3730000000001 C 558.052 464.4790000000001 555.1129999999999 464.3680000000001 552.18 464.1470000000001 C 552.0129999999999 464.1320000000001 551.8489999999999 464.1150000000001 551.683 464.0990000000001 C 545.7669999999999 463.6110000000001 539.901 462.4610000000001 534.327 460.2460000000001 C 530.762 458.8490000000001 527.395 456.9830000000001 524.186 454.8690000000001 C 534.7810000000001 467.4770000000001 550.322 476.8900000000001 572.6510000000001 476.0420000000001 C 556.6010000000001 461.88900000000007 544.5010000000001 437.9390000000001 546.647 406.0320000000001 L 563.0790000000001 405.9910000000001 C 577.344 405.9550000000001 589.849 391.6020000000001 591.3330000000001 373.7180000000001 L 599.8380000000001 271.2080000000001 C 600.909 258.279 596.621 246.161 589.255 238.794 z" stroke-linecap="round" />
</g>
<g transform="matrix(0.9414019701 -0.182990006 0.3215891843 1.6544329297 321.119774349 342.200063048)" id="pDvMcIBnptipupCJjy7i-"  >
<path style="stroke: none; stroke-width: 1; stroke-dasharray: none; stroke-linecap: butt; stroke-dashoffset: 0; stroke-linejoin: miter; stroke-miterlimit: 4; fill: rgb(35,31,32); fill-opacity: 0.72; fill-rule: nonzero; opacity: 1;" vector-effect="non-scaling-stroke"  transform=" translate(-296.0606686472, -294.1588327951)" d="M 8.619 207.014 L 12.413 241.12800000000001 L 11.441 241.24 C 9.63 235.691 8.208 230.096 6.795000000000001 224.501 C 5.354000000000001 218.909 3.855000000000001 213.324 2.724000000000001 207.696 C -0.31299999999999883 197.123 -1.222999999999999 183.434 2.1420000000000012 171.225 C 5.324000000000002 158.838 12.555000000000001 147.328 22.534 139.038 C 32.554 130.726 45.141 125.84100000000001 57.815999999999995 124.41400000000002 C 64.164 123.68500000000002 70.565 123.75100000000002 76.836 124.53500000000001 C 82.693 125.05700000000002 88.265 125.73400000000001 93.969 126.49400000000001 C 105.33999999999999 127.79800000000002 116.61599999999999 129.76600000000002 127.898 131.68900000000002 C 150.428 135.77 172.751 141.28400000000002 194.714 149.28400000000002 L 194.574 150.25300000000001 L 126.58200000000001 140.78500000000003 C 115.25200000000001 139.18900000000002 103.909 137.68800000000002 92.60300000000001 135.93500000000003 C 81.26700000000001 134.41700000000003 70.007 131.66800000000003 58.71500000000001 133.07300000000004 C 47.47900000000001 134.19500000000005 36.50200000000001 138.36300000000003 27.68200000000001 145.43900000000002 C 18.86100000000001 152.496 12.36400000000001 162.35900000000004 9.329000000000008 173.247 C 7.782000000000008 178.68400000000003 7.074000000000008 184.346 7.107000000000008 190.00500000000002 C 7.114 195.65 8.072 201.318 8.619 207.014 z M 551.682 464.098 C 551.8480000000001 464.112 552.014 464.132 552.179 464.146 C 555.112 464.368 558.0509999999999 464.478 560.98 464.372 C 560.975 464.372 560.969 464.37100000000004 560.964 464.37100000000004 C 551.946 464.324 542.931 462.862 534.7610000000001 459.218 C 526.5770000000001 455.622 519.4520000000001 449.916 513.8180000000001 443.063 C 502.5470000000001 429.298 496.3030000000001 411.73 494.4770000000001 394.281 C 494.3680000000001 393.311 493.5460000000001 392.538 492.5450000000001 392.533 L 403.7030000000001 391.39300000000003 L 314.8620000000001 390.735 L 137.1800000000001 389.564 L 114.97000000000008 389.55100000000004 L 103.86500000000008 389.5450000000001 L 98.31300000000007 389.5420000000001 L 93.29800000000007 389.3270000000001 C 80.07800000000007 388.1210000000001 67.29100000000007 381.6270000000001 58.456000000000074 371.80200000000013 C 54.017000000000074 366.91500000000013 50.62800000000007 361.15000000000015 48.80500000000008 354.98200000000014 C 48.38300000000008 353.43300000000016 47.87200000000008 351.90300000000013 47.693000000000076 350.3100000000001 L 47.28900000000007 347.94600000000014 L 46.974000000000075 345.20300000000015 L 45.73100000000007 334.1680000000001 L 40.760000000000076 290.0270000000001 L 30.81700000000008 201.74500000000012 C 29.863000000000078 193.99500000000012 29.226000000000077 188.01800000000011 30.57300000000008 181.7790000000001 C 31.761000000000077 175.6420000000001 34.809000000000076 170.1130000000001 39.06100000000008 165.7770000000001 C 47.638000000000076 156.8470000000001 61.10600000000008 153.9820000000001 74.30500000000008 156.0660000000001 L 426.18100000000004 205.70200000000008 L 514.2230000000001 217.60400000000007 L 558.244 223.55400000000006 L 563.714 224.30300000000005 C 565.1850000000001 224.53900000000004 566.62 224.93700000000004 568.0290000000001 225.48300000000006 C 570.8230000000001 226.63200000000006 573.3890000000001 228.52200000000005 575.5580000000001 230.88300000000007 C 579.8960000000001 235.63200000000006 582.7390000000001 242.01700000000005 583.8760000000001 248.67900000000006 C 584.4230000000001 252.01900000000006 584.6500000000001 255.43500000000006 584.4250000000001 258.84100000000007 L 583.628 269.88400000000007 L 581.998 292.0350000000001 L 578.976 336.3570000000001 L 577.477 358.5180000000001 C 577.2099999999999 365.8500000000001 575.745 372.63900000000007 572.144 378.7650000000001 C 568.639 384.7570000000001 563.23 389.8450000000001 556.64 391.7850000000001 C 555.003 392.2650000000001 553.3149999999999 392.51200000000006 551.6129999999999 392.5990000000001 L 546.079 392.7120000000001 L 534.9749999999999 392.9090000000001 L 534.9189999999999 392.9100000000001 C 534.1769999999999 392.92500000000007 533.5639999999999 393.5130000000001 533.5279999999999 394.2650000000001 C 532.9139999999999 407.2950000000001 534.454 420.5370000000001 539.0889999999999 432.7380000000001 C 542.881 442.8750000000001 548.8149999999999 452.13600000000014 556.324 459.82100000000014 C 557.8399999999999 461.37300000000016 559.3249999999999 462.95700000000016 560.9749999999999 464.3650000000001 C 560.978 464.36700000000013 560.9799999999999 464.3700000000001 560.983 464.3720000000001 L 560.983 464.3730000000001 L 560.983 464.3720000000001 L 560.981 464.3700000000001 C 551.51 455.59300000000013 544.5649999999999 444.3370000000001 540.584 432.21000000000015 C 536.733 420.49300000000017 535.578 408.06900000000013 536.382 395.8340000000002 L 546.0889999999999 395.95700000000016 L 551.659 396.01300000000015 C 553.659 395.98000000000013 555.655 395.7450000000002 557.5889999999999 395.24200000000013 C 565.3919999999999 393.1900000000001 571.664 387.54900000000015 575.7909999999999 380.9730000000001 C 580.0089999999999 374.4180000000001 581.9359999999999 366.34300000000013 582.4019999999999 358.9260000000001 L 584.5759999999999 336.8210000000001 L 588.901 292.6070000000001 L 590.944 270.49000000000007 L 591.952 259.3980000000001 C 592.289 255.4170000000001 592.11 251.39600000000007 591.529 247.42700000000008 C 591.077 244.5010000000001 590.262 241.61900000000009 589.258 238.79400000000007 C 587.546 233.97600000000006 585.0980000000001 229.37500000000006 581.6030000000001 225.38900000000007 C 578.8240000000001 222.25600000000006 575.364 219.54400000000007 571.33 217.78700000000006 C 569.2990000000001 216.93700000000007 567.183 216.30400000000006 564.9920000000001 215.92300000000006 L 559.475 215.06200000000007 L 515.572 208.29200000000006 L 427.767 194.75200000000007 L 76.249 142.62 C 68.405 141.43800000000002 59.70099999999999 141.35500000000002 51.507999999999996 143.549 C 43.263999999999996 145.619 35.43599999999999 150.073 29.369999999999994 156.329 C 23.296999999999993 162.56900000000002 19.047999999999995 170.63400000000001 17.454999999999995 179.061 C 15.614999999999995 187.39700000000002 16.741999999999994 196.392 17.645999999999994 203.27100000000002 L 28.135999999999996 291.48900000000003 L 33.382 335.598 L 34.693 346.625 L 35.028999999999996 349.396 L 35.562 352.505 C 35.843999999999994 354.597 36.482 356.597 37.059999999999995 358.612 C 39.507 366.63800000000003 43.88999999999999 373.903 49.42699999999999 379.94 C 57.422999999999995 388.692 67.74 395.096 78.999 398.532 C 83.31 399.84799999999996 87.746 400.768 92.262 401.161 L 98.342 401.387 L 103.894 401.356 L 115 401.294 L 137.21 401.169 L 314.884 399.09999999999997 L 403.721 397.99299999999994 L 490.918 396.4339999999999 C 491.402 399.7219999999999 492.051 402.9669999999999 492.853 406.1679999999999 C 494.137 411.2949999999999 495.767 416.31799999999987 497.796 421.1879999999999 C 501.368 429.61399999999986 506.07099999999997 437.6159999999999 512.144 444.5029999999999 C 515.665 448.4859999999999 519.754 451.9489999999999 524.1850000000001 454.86899999999986 C 527.394 456.98299999999983 530.7600000000001 458.8489999999999 534.326 460.24599999999987 C 539.9 462.46 545.766 463.61 551.682 464.098 z" stroke-linecap="round" />
</g>
<g transform="matrix(0.9414019701 -0.182990006 0.3215891843 1.6544329297 336.6239969005 366.2038869698)" id="LzYrplD02wmDKhTMVwvsW"  >
<path style="stroke: none; stroke-width: 1; stroke-dasharray: none; stroke-linecap: butt; stroke-dashoffset: 0; stroke-linejoin: miter; stroke-miterlimit: 4; fill: rgb(255,255,255); fill-opacity: 0.3; fill-rule: nonzero; opacity: 1;" vector-effect="non-scaling-stroke"  transform=" translate(-307.1544932483, -309.8946674028)" d="M 560.973 464.365 C 559.376 462.955 557.8309999999999 461.422 556.322 459.821 C 548.813 452.136 542.88 442.875 539.087 432.73800000000006 C 534.452 420.53800000000007 532.912 407.2950000000001 533.526 394.26500000000004 C 533.5619999999999 393.51300000000003 534.175 392.92500000000007 534.9169999999999 392.91 L 534.973 392.90900000000005 L 546.077 392.71200000000005 L 551.611 392.59900000000005 C 553.314 392.51300000000003 555.001 392.26500000000004 556.638 391.785 C 563.229 389.845 568.638 384.757 572.142 378.76500000000004 C 575.743 372.63900000000007 577.2090000000001 365.84900000000005 577.475 358.51800000000003 L 578.974 336.357 L 581.9960000000001 292.035 L 583.6260000000001 269.884 L 584.4230000000001 258.841 C 584.6480000000001 255.435 584.4210000000002 252.019 583.8740000000001 248.679 C 582.7370000000002 242.017 579.8940000000001 235.633 575.5560000000002 230.883 C 573.3870000000002 228.523 570.8210000000001 226.632 568.0270000000002 225.483 C 566.6190000000001 224.937 565.1830000000001 224.54 563.7120000000001 224.303 L 558.2420000000001 223.554 L 514.2210000000001 217.604 L 426.1790000000001 205.70200000000003 L 74.303 156.066 C 61.104 153.982 47.635999999999996 156.847 39.059 165.77700000000002 C 34.808 170.11300000000003 31.758999999999997 175.64300000000003 30.570999999999998 181.77900000000002 C 29.223999999999997 188.01900000000003 29.860999999999997 193.99600000000004 30.814999999999998 201.74500000000003 L 40.757999999999996 290.02700000000004 L 45.729 334.16800000000006 L 46.972 345.2030000000001 L 47.287 347.9460000000001 L 47.691 350.31000000000006 C 47.871 351.9030000000001 48.381 353.43300000000005 48.803000000000004 354.9820000000001 C 50.626000000000005 361.1500000000001 54.015 366.9150000000001 58.45400000000001 371.8020000000001 C 67.28900000000002 381.62700000000007 80.07600000000001 388.1210000000001 93.296 389.32700000000006 L 98.311 389.54200000000003 L 103.863 389.545 L 114.968 389.551 L 137.178 389.56399999999996 L 314.86 390.73499999999996 L 403.701 391.393 L 492.543 392.53299999999996 C 493.543 392.53799999999995 494.366 393.30999999999995 494.475 394.28099999999995 C 496.3 411.72999999999996 502.545 429.29699999999997 513.816 443.06299999999993 C 519.45 449.91599999999994 526.575 455.62199999999996 534.759 459.21799999999996 C 542.929 462.86099999999993 551.944 464.32399999999996 560.962 464.371 C 560.968 464.371 560.972 464.37199999999996 560.978 464.371 C 560.978 464.37 560.976 464.367 560.973 464.365 z" stroke-linecap="round" />
</g>
</svg>