<?xml version="1.0" encoding="UTF-8"?>
<svg viewBox="0 0 610.47723 396.30215" xmlns="http://www.w3.org/2000/svg">
 <g transform="matrix(-.27132 .12748 .12748 .27132 167.68 -2.9636)">
  <path d="m51.429 475.22c-7.8599-9.554-38.846-29.849-48.571-37.143-13.869-10.401-21.215-19.483-37.143-31.429-10.08-7.5599-19.463-29.279-22.857-42.857-3.7501-15-5.7143-26.087-5.7143-42.857v-48.571c0-17.984 4.1081-28.216 11.429-42.857 6.8747-13.749 17.05-24.24 31.429-31.429 15.89-7.9449 32.287-11.429 48.571-11.429 18.83 0 25.734 8.5714 42.857 8.5714 9.4512 0 20.906 10.453 28.571 14.286 13.193 6.5966 15.151 13.421 28.571 0 12.194-12.194 27.692-13.352 42.857-17.143 14.582-3.6454 22.682 8.3964 28.571 14.286 8.8219 8.8219 8.6573 23.286 11.429 37.143 2.6919 13.459 2.8571 29.643 2.8571 42.857 0 18.181-1.5985 20.68-5.7143 37.143-4.0398 16.159-15.458 30.915-20 40-5.1946 10.389-11 29.716-14.286 42.857-3.2105 12.842-18.524 30.413-25.714 40-12.502 16.669-34.789 35.826-45.714 48.571-9.3518 10.91-31.932-0.50361-37.143-5.7143-1.3469-1.3469-3.8095 0-5.7143 0-5.5533 0-5.7143-9.5238-8.5714-14.286z" fill="#d40000" fill-rule="evenodd"/>
  <path d="m371.43 875.22c-6.9216 0-46.182-52.363-54.286-68.571-15.726-31.453-35.793-61.508-60-85.714-21.189-21.189-31.471-44.339-48.571-65.714-11.877-14.846-15.518-42.071-20-60-4.6707-18.683-5.7143-34.444-5.7143-54.286 0-18.678 4.2779-31.397 8.5714-48.571 4.3779-17.512 15.282-30.565 22.857-45.714 7.7589-15.518 16.055-26.758 25.714-42.857 12.019-20.031 29.283-32.141 45.714-48.571 22.08-22.08 51.596-32.899 80-40 26.024-6.5059 49.965-10.348 77.143-17.143 29.382-7.3454 42.74 2.6228 54.286 25.714 8.0191 16.038 12.539 24.441 17.143 42.857 3.908 15.632 2.8572 31.978 2.8572 48.571 0 17.845 2.4335 27.724 8.5714 40 8.6725 17.345 32.57-4.3787 40-14.286 22.378-29.837 46.118-48.773 80-65.714 18.744-9.3719 44.44-5.7143 65.714-5.7143 8.874 0 32.103 17.649 42.857 25.714 15.198 11.398 27.247 17.559 31.429 34.286 4.3337 17.335 5.7143 34.212 5.7143 54.286v77.143c0 18.502-3.87 44.883-11.429 60-9.2609 18.522-9.9873 38.559-25.714 54.286-16.361 16.361-30.211 45.152-42.857 62.857-12.499 17.498-26.295 33.155-40 51.429-27.994 37.325-63.626 75.055-97.143 108.57-20.154 20.154-57.366 40.504-82.857 51.429-7.4792 3.2054-15.238 5.7143-22.857 8.5714-25.417 9.5315-32.205 10.653-51.429-8.5714-12.644-12.644-22.308-33.554-31.429-45.714-7.4178-9.8904-3.5158-15.109-14.286-28.571z" fill="#d40000" fill-rule="evenodd"/>
  <path d="m-42.857 1135.2c-15.304-20.405-50.48-52.389-65.714-82.857-17.804-35.607-38.88-56.64-51.429-94.286-8.5991-25.797-20.777-49.597-25.714-74.286-4.6245-23.123-8.466-45.293-14.286-68.571-5.3099-21.24-6.7393-55.093 2.8571-74.286 11.462-22.925 36.281-41.995 51.429-57.143 15.707-15.707 63.903-20.261 85.714-25.714 21.212-5.3031 42.693 4.543 54.286 20 12.206 16.274 19.054 40.983 22.857 60 3.5552 17.776 3.9335 27.867 11.429 42.857 16.925 33.849 5.7226 22.849 40-11.429 5.2597-5.2597 11.429-9.5238 17.143-14.286 14.122-11.768 29.119-14.56 45.714-22.857 17.584-8.792 48.68-2.8571 68.571-2.8571 23.987 0 29.32 10.068 37.143 25.714 12.432 24.863 18.78 49.405 25.714 77.143 6.2753 25.101-2.9938 54.832-8.5714 77.143-6.6352 26.541-29.833 49.833-48.571 68.571-20.873 20.873-37.371 41.851-62.857 57.143-17.409 10.446-29.216 28.894-45.714 37.143-16.923 8.4617-27.183 23.939-45.714 28.571-19.392 4.848-25.445 17.79-45.714 22.857-19.253 4.8131-25.395 16.064-48.571 11.428z" fill="#d40000" fill-rule="evenodd"/>
  <path d="m413.34 344.97c-51.64 1.1328-99.892 30.761-129.66 72.102-26.965 38.155-46.221 83.686-45.642 131.04 0.44588 47.778 15.833 94.333 37.927 136.29 31.266 56.728 77.242 103.35 123.55 147.9 9.3506 8.8395 18.78 17.581 28.359 26.167 1.4452-1.3141 5.0649-3.6915 1.7883-5.3131-34.707-33.642-67.213-69.894-94.925-109.59-34.902-51.653-62.118-110.29-68.417-172.9-3.4469-35.932 2.4809-72.675 17.249-105.63 12.846-32.037 32.157-63.18 61.961-81.909 35.298-22.902 82.629-28.601 120.97-9.8718 29.072 13.655 51.101 38.816 66.499 66.497 6.5763 10.352 18.267 18.433 30.979 16.922 20.912-1.1561 38.724-13.398 57.174-21.976 29.01-14.458 60.476-27.374 93.531-25.618 33.477 1.4899 67.703 14.006 90.598 39.172 20.227 23.258 28.468 54.585 30.021 84.808 2.4455 51.879-15.048 102.55-39.238 147.75-21.138 39.774-49.146 75.806-82.357 106.23-41.228 38.504-86.587 72.438-134.4 102.32-36.142 22.857-73.631 43.633-112.31 61.827-0.8283 4.1177 5.5093 5.7708 7.7044 2.6076 31.719-17.384 64.986-31.726 97.147-48.3 57.417-29.301 112.51-64.095 160-107.94 37.308-34.366 68.916-75.458 89.398-122.04 23.193-50.263 36.484-106.57 29.441-162.01-4.8156-34.244-19.301-68.896-47.106-90.702-33.28-25.784-77.612-34.901-118.87-29.06-26.778 3.9844-51.605 15.514-75.32 28.07-15.564 7.7256-31.597 16.147-49.152 17.687-11.521-2.4061-16.415-14.318-21.812-23.401-21.673-33.577-55.529-61.092-95.526-68.378-9.7171-1.9729-19.639-2.9149-29.555-2.7464z" fill="#280b0b"/>
  <path d="m176.61 191.09c-29.276 0.95792-55.268 18.151-74.823 38.844-6.3875 4.3145-14.048-0.94113-17.838-6.263-24.388-21.1-63.323-25.482-90.184-6.4872-25.564 16.981-38.33 49.326-34.797 79.371 2.1106 37.128 21.555 71.364 47.594 97.029 7.0664 7.2536 14.225 14.51 21.765 21.132-18.07-22.653-33.15-47.933-43.466-75.117-9.3397-26.169-12.992-55.825-3.253-82.415 10.858-26.258 43.333-42.351 70.431-32.071 14.337 4.7934 24.679 16.664 37.778 23.569 12.397 3.1415 24.186-4.9374 31.868-13.955 15.304-13.876 34.029-26.844 55.562-26.475 29.538-0.1273 56.017 23.908 61.13 52.598 4.6736 20.893-1.2107 42.644-11.323 61.034-20.684 44.265-53.306 81.598-88.096 115.36-16.517 15.301-34.284 29.342-53.444 41.071 38.096-15.906 74.653-37.352 102.19-68.627 29.374-31.861 53.777-69.25 66.393-110.96 7.5736-26.707 1.3724-56.846-16.54-78.123-14.824-17.904-37.376-30.121-60.95-29.509z" fill="#280b0b"/>
  <path d="m-68.688 670.72c-44.433 1.9616-85.873 34.762-97 78-13.942 44.732-7.7619 93.511 8.8071 136.65 16.097 42.173 37.824 81.946 61.058 120.55 20.699 33.345 43.76 65.215 68.853 95.39 5.5341 1.1105 6.9687-7.7708 2.434-9.8828-40.122-56.447-73.486-117.66-99.936-181.64-15.804-38.611-29.491-79.491-27.968-121.75 0.99477-24.191 6.2544-49.596 22.175-68.613 18.453-23.124 49.873-36.214 79.168-29.738 16.635 3.3794 31.114 14.184 40.054 28.485 10.553 16.017 14.791 34.987 20.095 53.111 3.8664 8.9449 15.554 12.67 23.978 7.8462 13.099-6.6087 22.797-18.115 34.85-26.292 16.483-11.581 34.395-21.849 53.994-27.025 17.235-4.4953 36.448-3.104 51.716 6.6073 26.78 15.742 41.886 46.673 43.088 77.125 1.7336 34.577-9.4078 68.174-22.078 99.861-14.74 35.661-34.669 69.457-61.073 97.758-32.03 35.557-70.592 64.84-112.3 88.139-6.7425 4.0928-14.218 7.6806-20.352 12.349 0.25787 4.5283 6.9642 5.3757 8.9146 1.5966 49.714-29.512 101.47-57.873 141.66-100.26 37.242-38.882 63.19-87.825 77.845-139.43 8.6017-32.572 10.869-68.518-2.9594-100.02-11.99-27.999-35.192-52.709-65.133-60.978-27.549-6.9754-56.529 1.7055-80.323 15.888-19.147 10.825-36.243 24.768-53.595 38.177-6.3807-1.6226-3.8944-9.7066-6.3248-14.277-6.7951-25.729-19.823-51.761-43.22-66.059-13.887-8.436-30.195-12.528-46.424-11.57zm94.719 93.719c0.1335 0.2841-0.49273-0.29342 0 0z" fill="#280b0b"/>
 </g>
 <g transform="matrix(.27132 -.12748 .12748 .27132 301.52 72.313)">
  <path d="m51.429 475.22c-7.8599-9.554-38.846-29.849-48.571-37.143-13.869-10.401-21.215-19.483-37.143-31.429-10.08-7.5599-19.463-29.279-22.857-42.857-3.7501-15-5.7143-26.087-5.7143-42.857v-48.571c0-17.984 4.1081-28.216 11.429-42.857 6.8747-13.749 17.05-24.24 31.429-31.429 15.89-7.9449 32.287-11.429 48.571-11.429 18.83 0 25.734 8.5714 42.857 8.5714 9.4512 0 20.906 10.453 28.571 14.286 13.193 6.5966 15.151 13.421 28.571 0 12.194-12.194 27.692-13.352 42.857-17.143 14.582-3.6454 22.682 8.3964 28.571 14.286 8.8219 8.8219 8.6573 23.286 11.429 37.143 2.6919 13.459 2.8571 29.643 2.8571 42.857 0 18.181-1.5985 20.68-5.7143 37.143-4.0398 16.159-15.458 30.915-20 40-5.1946 10.389-11 29.716-14.286 42.857-3.2105 12.842-18.524 30.413-25.714 40-12.502 16.669-34.789 35.826-45.714 48.571-9.3518 10.91-31.932-0.50361-37.143-5.7143-1.3469-1.3469-3.8095 0-5.7143 0-5.5533 0-5.7143-9.5238-8.5714-14.286z" fill="#d40000" fill-rule="evenodd"/>
  <path d="m371.43 875.22c-6.9216 0-46.182-52.363-54.286-68.571-15.726-31.453-35.793-61.508-60-85.714-21.189-21.189-31.471-44.339-48.571-65.714-11.877-14.846-15.518-42.071-20-60-4.6707-18.683-5.7143-34.444-5.7143-54.286 0-18.678 4.2779-31.397 8.5714-48.571 4.3779-17.512 15.282-30.565 22.857-45.714 7.7589-15.518 16.055-26.758 25.714-42.857 12.019-20.031 29.283-32.141 45.714-48.571 22.08-22.08 51.596-32.899 80-40 26.024-6.5059 49.965-10.348 77.143-17.143 29.382-7.3454 42.74 2.6228 54.286 25.714 8.0191 16.038 12.539 24.441 17.143 42.857 3.908 15.632 2.8572 31.978 2.8572 48.571 0 17.845 2.4335 27.724 8.5714 40 8.6725 17.345 32.57-4.3787 40-14.286 22.378-29.837 46.118-48.773 80-65.714 18.744-9.3719 44.44-5.7143 65.714-5.7143 8.874 0 32.103 17.649 42.857 25.714 15.198 11.398 27.247 17.559 31.429 34.286 4.3337 17.335 5.7143 34.212 5.7143 54.286v77.143c0 18.502-3.87 44.883-11.429 60-9.2609 18.522-9.9873 38.559-25.714 54.286-16.361 16.361-30.211 45.152-42.857 62.857-12.499 17.498-26.295 33.155-40 51.429-27.994 37.325-63.626 75.055-97.143 108.57-20.154 20.154-57.366 40.504-82.857 51.429-7.4792 3.2054-15.238 5.7143-22.857 8.5714-25.417 9.5315-32.205 10.653-51.429-8.5714-12.644-12.644-22.308-33.554-31.429-45.714-7.4178-9.8904-3.5158-15.109-14.286-28.571z" fill="#d40000" fill-rule="evenodd"/>
  <path d="m-42.857 1135.2c-15.304-20.405-50.48-52.389-65.714-82.857-17.804-35.607-38.88-56.64-51.429-94.286-8.5991-25.797-20.777-49.597-25.714-74.286-4.6245-23.123-8.466-45.293-14.286-68.571-5.3099-21.24-6.7393-55.093 2.8571-74.286 11.462-22.925 36.281-41.995 51.429-57.143 15.707-15.707 63.903-20.261 85.714-25.714 21.212-5.3031 42.693 4.543 54.286 20 12.206 16.274 19.054 40.983 22.857 60 3.5552 17.776 3.9335 27.867 11.429 42.857 16.925 33.849 5.7226 22.849 40-11.429 5.2597-5.2597 11.429-9.5238 17.143-14.286 14.122-11.768 29.119-14.56 45.714-22.857 17.584-8.792 48.68-2.8571 68.571-2.8571 23.987 0 29.32 10.068 37.143 25.714 12.432 24.863 18.78 49.405 25.714 77.143 6.2753 25.101-2.9938 54.832-8.5714 77.143-6.6352 26.541-29.833 49.833-48.571 68.571-20.873 20.873-37.371 41.851-62.857 57.143-17.409 10.446-29.216 28.894-45.714 37.143-16.923 8.4617-27.183 23.939-45.714 28.571-19.392 4.848-25.445 17.79-45.714 22.857-19.253 4.8131-25.395 16.064-48.571 11.428z" fill="#d40000" fill-rule="evenodd"/>
  <path d="m413.34 344.97c-51.64 1.1328-99.892 30.761-129.66 72.102-26.965 38.155-46.221 83.686-45.642 131.04 0.44588 47.778 15.833 94.333 37.927 136.29 31.266 56.728 77.242 103.35 123.55 147.9 9.3506 8.8395 18.78 17.581 28.359 26.167 1.4452-1.3141 5.0649-3.6915 1.7883-5.3131-34.707-33.642-67.213-69.894-94.925-109.59-34.902-51.653-62.118-110.29-68.417-172.9-3.4469-35.932 2.4809-72.675 17.249-105.63 12.846-32.037 32.157-63.18 61.961-81.909 35.298-22.902 82.629-28.601 120.97-9.8718 29.072 13.655 51.101 38.816 66.499 66.497 6.5763 10.352 18.267 18.433 30.979 16.922 20.912-1.1561 38.724-13.398 57.174-21.976 29.01-14.458 60.476-27.374 93.531-25.618 33.477 1.4899 67.703 14.006 90.598 39.172 20.227 23.258 28.468 54.585 30.021 84.808 2.4455 51.879-15.048 102.55-39.238 147.75-21.138 39.774-49.146 75.806-82.357 106.23-41.228 38.504-86.587 72.438-134.4 102.32-36.142 22.857-73.631 43.633-112.31 61.827-0.8283 4.1177 5.5093 5.7708 7.7044 2.6076 31.719-17.384 64.986-31.726 97.147-48.3 57.417-29.301 112.51-64.095 160-107.94 37.308-34.366 68.916-75.458 89.398-122.04 23.193-50.263 36.484-106.57 29.441-162.01-4.8156-34.244-19.301-68.896-47.106-90.702-33.28-25.784-77.612-34.901-118.87-29.06-26.778 3.9844-51.605 15.514-75.32 28.07-15.564 7.7256-31.597 16.147-49.152 17.687-11.521-2.4061-16.415-14.318-21.812-23.401-21.673-33.577-55.529-61.092-95.526-68.378-9.7171-1.9729-19.639-2.9149-29.555-2.7464z" fill="#280b0b"/>
  <path d="m176.61 191.09c-29.276 0.95792-55.268 18.151-74.823 38.844-6.3875 4.3145-14.048-0.94113-17.838-6.263-24.388-21.1-63.323-25.482-90.184-6.4872-25.564 16.981-38.33 49.326-34.797 79.371 2.1106 37.128 21.555 71.364 47.594 97.029 7.0664 7.2536 14.225 14.51 21.765 21.132-18.07-22.653-33.15-47.933-43.466-75.117-9.3397-26.169-12.992-55.825-3.253-82.415 10.858-26.258 43.333-42.351 70.431-32.071 14.337 4.7934 24.679 16.664 37.778 23.569 12.397 3.1415 24.186-4.9374 31.868-13.955 15.304-13.876 34.029-26.844 55.562-26.475 29.538-0.1273 56.017 23.908 61.13 52.598 4.6736 20.893-1.2107 42.644-11.323 61.034-20.684 44.265-53.306 81.598-88.096 115.36-16.517 15.301-34.284 29.342-53.444 41.071 38.096-15.906 74.653-37.352 102.19-68.627 29.374-31.861 53.777-69.25 66.393-110.96 7.5736-26.707 1.3724-56.846-16.54-78.123-14.824-17.904-37.376-30.121-60.95-29.509z" fill="#280b0b"/>
  <path d="m-68.688 670.72c-44.433 1.9616-85.873 34.762-97 78-13.942 44.732-7.7619 93.511 8.8071 136.65 16.097 42.173 37.824 81.946 61.058 120.55 20.699 33.345 43.76 65.215 68.853 95.39 5.5341 1.1105 6.9687-7.7708 2.434-9.8828-40.122-56.447-73.486-117.66-99.936-181.64-15.804-38.611-29.491-79.491-27.968-121.75 0.99477-24.191 6.2544-49.596 22.175-68.613 18.453-23.124 49.873-36.214 79.168-29.738 16.635 3.3794 31.114 14.184 40.054 28.485 10.553 16.017 14.791 34.987 20.095 53.111 3.8664 8.9449 15.554 12.67 23.978 7.8462 13.099-6.6087 22.797-18.115 34.85-26.292 16.483-11.581 34.395-21.849 53.994-27.025 17.235-4.4953 36.448-3.104 51.716 6.6073 26.78 15.742 41.886 46.673 43.088 77.125 1.7336 34.577-9.4078 68.174-22.078 99.861-14.74 35.661-34.669 69.457-61.073 97.758-32.03 35.557-70.592 64.84-112.3 88.139-6.7425 4.0928-14.218 7.6806-20.352 12.349 0.25787 4.5283 6.9642 5.3757 8.9146 1.5966 49.714-29.512 101.47-57.873 141.66-100.26 37.242-38.882 63.19-87.825 77.845-139.43 8.6017-32.572 10.869-68.518-2.9594-100.02-11.99-27.999-35.192-52.709-65.133-60.978-27.549-6.9754-56.529 1.7055-80.323 15.888-19.147 10.825-36.243 24.768-53.595 38.177-6.3807-1.6226-3.8944-9.7066-6.3248-14.277-6.7951-25.729-19.823-51.761-43.22-66.059-13.887-8.436-30.195-12.528-46.424-11.57zm94.719 93.719c0.1335 0.2841-0.49273-0.29342 0 0z" fill="#280b0b"/>
 </g>
 <g transform="matrix(-.12744 0 0 .12744 32.932 -91.096)">
  <path d="m-2018.4 1702.5c-6.2646 2.9434-64.065-27.754-78.293-38.977-27.609-21.78-58.552-40.448-90.754-52.063-28.189-10.167-47.339-26.747-71.906-38.822-17.063-8.3862-31.935-31.479-43.616-45.8-12.172-14.923-19.819-28.745-28.257-46.703-7.9427-16.905-9.4799-30.236-12.897-47.606-3.4844-17.711 0.8341-34.162 1.2475-51.095 0.4235-17.344 3.152-31.046 5.0484-49.724 2.3597-23.241 12.836-41.542 20.72-63.401 10.594-29.373 32.708-51.717 55.396-70.223 20.787-16.955 40.822-30.614 62.53-48.32 23.469-19.143 39.798-15.801 60.068 0.1885 14.078 11.106 21.742 16.789 33.74 31.499 10.184 12.486 16.185 27.728 23.241 42.746 7.5884 16.151 13.992 24.058 24.768 32.558 15.225 12.01 27.616-17.813 30.128-29.94 7.5654-36.521 20.999-63.755 44.461-93.496 12.979-16.453 37.792-24.07 57.046-33.117 8.0316-3.7736 36.561 2.3217 49.724 5.0484 18.602 3.8535 32.128 4.3058 43.025 17.666 11.294 13.846 19.721 28.535 28.257 46.703l32.805 69.82c7.868 16.746 15.584 42.268 15.171 59.164-0.5055 20.702 7.3578 39.146-0.1885 60.068-7.8505 21.766-8.142 53.713-12.059 75.116-3.8712 21.152-9.6997 41.19-14.333 63.557-9.4642 45.687-25.67 94.987-41.752 139.58-9.6707 26.812-34.697 61.054-53.122 81.782-5.4062 6.0816-11.362 11.652-17.042 17.478-18.951 19.436-24.618 23.336-50.192 14.112-16.821-6.0671-34.46-20.882-47.885-28.01-10.92-5.7972-9.6072-12.18-25.08-19.784z" fill="#d40000" fill-rule="evenodd"/>
  <path d="m-2205.9 1204.8c-46.257 22.985-77.329 70.32-86.69 120.4-8.1799 46-6.2463 95.398 14.416 138.01 20.721 43.053 54.446 78.646 92.285 107.23 52.422 38.048 113.86 60.688 174.71 81.319 12.222 4.0241 24.474 7.9257 36.794 11.623 0.7492-1.8039 3.0143-5.4949-0.6408-5.5692-45.719-15.69-90.555-34.677-132.52-58.824-53.554-31.908-103.12-73.404-135.45-127.39-18.4-31.055-28.66-66.831-29.307-102.94-1.9967-34.459 2.2377-70.857 21.248-100.48 22.208-35.738 62.623-61.024 105.29-60.377 32.119-0.0038 62.756 13.4 88.464 31.906 10.354 6.5727 24.372 8.915 35.234 2.1418 18.435-9.939 29.351-28.594 42.401-44.203 20.108-25.422 43.095-50.493 73.758-62.96 30.933-12.888 67.233-16.114 98.656-3.073 28.197 12.448 48.978 37.298 63.236 63.992 24.275 45.914 29.99 99.216 27.32 150.42-2.2175 44.988-12.245 89.51-29.367 131.17-20.94 52.381-47.564 102.38-78.13 149.76-22.991 36.056-48.087 70.803-75.355 103.72 1.0014 4.0791 7.4404 2.8802 8.082-0.9162 21.316-29.222 45.326-56.35 67.386-85.027 39.507-50.936 74.573-105.86 98.907-165.73 19.153-46.969 30.286-97.602 29.014-148.47-0.3828-55.355-12.297-111.97-42.25-159.15-18.921-28.946-46.767-54.148-81.205-62.06-41.086-9.1837-85.086 1.4167-119.95 24.249-22.542 14.994-40.109 35.986-56.234 57.435-10.802 13.611-21.731 28.051-36.965 36.91-11.451 2.7216-20.946-5.9784-29.693-11.905-33.895-21.173-76.238-31.68-115.54-21.265-9.6337 2.3466-19.015 5.7134-27.917 10.082z" fill="#280b0b"/>
 </g>
 <g transform="matrix(.23698 0 0 .23698 895.5 44.077)">
  <path d="m-2478.1 1476.6c-11.177-5.3047-47.852-10.496-59.756-12.962-16.975-3.5165-27.486-8.6117-46.982-12.65-12.338-2.5559-30.066-18.223-38.912-29.069-9.7731-11.982-16.266-21.181-23.397-36.359l-20.655-43.961c-7.6475-16.276-8.2807-27.285-7.8812-43.649 0.3752-15.368 5.1241-29.189 15.08-41.81 11.003-13.948 24.363-24.074 39.101-30.999 17.043-8.0074 26.936-3.1856 42.434-10.467 8.5541-4.0191 23.366 0.5705 31.934 0.7797 14.746 0.36 19.42 5.7038 25.859-12.15 5.8511-16.222 19.386-23.86 31.499-33.741 11.647-9.5002 24.1-2.0461 31.934 0.7797 11.736 4.233 17.738 17.394 26.139 28.757 8.1599 11.037 15.192 25.614 20.811 37.574 7.7315 16.455 7.3473 19.396 10.623 36.047 3.2154 16.343-0.8437 34.554-1.0916 44.708-0.2835 11.612 2.6805 31.573 5.2953 44.864 2.5553 12.988-3.8326 35.404-6.2634 47.138-4.2265 20.403-16.252 47.219-20.72 63.401-3.8244 13.852-29.115 13.123-36.047 10.623-1.7918-0.6462-3.4479 1.62-5.1719 2.43-5.0261 2.3615-9.2218-6.1898-13.833-9.2846z" fill="#d40000" fill-rule="evenodd"/>
  <path d="m-2485.6 1166.2c-26.09 13.316-42.303 39.931-51.202 66.975-3.9464 6.6212-13.115 5.1223-18.808 1.917-31.046-8.7266-68.148 3.8647-84.382 32.479-15.916 26.24-13.716 60.944 2.2584 86.634 17.699 32.706 49.856 55.423 84.338 67.579 9.4803 3.5601 19.045 7.0835 28.685 9.8704-25.988-12.819-50.386-29.286-71.283-49.502-19.581-19.713-35.498-45-37.991-73.208-1.3385-28.383 21.21-56.758 50.107-58.978 15.015-1.7584 29.422 4.5874 44.215 5.267 12.556-2.4284 19.79-14.754 22.909-26.182 7.9505-19.066 19.383-38.766 39.03-47.59 26.68-12.676 60.867-2.183 77.694 21.61 13.115 16.922 17.038 39.111 15.707 60.055 0.1025 48.859-13.547 96.52-30.679 141.87-8.4429 20.872-18.552 41.136-30.906 59.899 27.715-30.596 51.683-65.552 63.307-105.57 13.037-41.328 19.224-85.545 12.905-128.66-4.5025-27.393-22.931-52.033-48.191-63.674-21.03-9.9007-46.637-11.368-67.713-0.7887z" fill="#280b0b"/>
 </g>
 <g transform="matrix(-.17008 0 0 .17008 95.625 -278.68)">
  <path d="m-2282.7 2114c-22.528-11.96-67.967-25.949-94.711-47.047-31.256-24.656-59.275-34.73-86.642-63.466-18.753-19.692-39.895-36.054-54.863-56.299-14.018-18.961-26.923-37.393-42.09-55.987-13.838-16.966-29.528-46.997-29.004-68.449 0.6256-25.623 14.979-53.437 22.247-73.589 7.5367-20.896 49.221-45.513 66.643-59.723 16.944-13.82 40.572-14.043 57.638-4.9834 17.968 9.5391 34.673 28.99 46.202 44.585 10.777 14.577 15.411 23.549 28.569 33.929 29.712 23.439 14.896 18.246 31.343-27.354 2.5238-6.9971 6.2938-13.48 9.4406-20.22 7.7769-16.656 20.164-25.561 31.655-40.127 12.176-15.435 42.844-23.287 60.847-31.746 21.71-10.2 30.818-3.3561 44.552 7.4784 21.824 17.216 38.006 36.729 56.078 58.885 16.354 20.05 20.608 50.901 25.047 73.465 5.2811 26.843-5.8095 57.788-14.801 82.717-10.015 27.768-16.027 53.771-32.591 78.449-11.315 16.857-14.156 38.575-25.58 53.057-11.719 14.855-14.423 33.226-29.225 45.299-15.49 12.634-15.465 26.922-31.655 40.127-15.378 12.543-16.154 25.338-39.101 30.999z" fill="#d40000" fill-rule="evenodd"/>
  <path d="m-2503.7 1704.6c-39.382 20.671-62.939 67.98-54.623 111.85 6.4037 46.415 32.74 87.936 66.082 119.93 32.503 31.324 69.081 58.083 106.53 83.145 32.914 21.378 67.339 40.416 102.88 57.055 5.481-1.3483 3.0026-9.9966-1.9998-9.9797-60.317-34.027-116.54-75.238-167.69-121.9-30.723-28.225-60.495-59.405-77.089-98.304-9.387-22.318-15.43-47.548-9.1075-71.53 6.8679-28.776 29.739-53.984 59.007-60.581 16.493-4.0156 34.192-0.3939 48.365 8.748 16.363 10.009 28.265 25.376 40.773 39.524 7.3032 6.4516 19.465 4.8532 25.038-3.0951 9.0453-11.552 12.93-26.09 20.361-38.616 9.994-17.491 21.839-34.402 37.377-47.421 13.688-11.398 31.669-18.309 49.616-16.012 30.932 2.8596 57.758 24.43 71.795 51.481 16.273 30.558 20.476 65.703 22.484 99.771 1.8244 38.544-1.8417 77.606-13.704 114.45-13.869 45.803-36.318 88.704-64.16 127.53-4.362 6.5715-9.6022 12.998-13.168 19.831 2.1591 3.9888 8.5892 1.9039 8.7474-2.3459 32.445-47.851 67.226-95.528 85.576-150.98 17.172-51.028 19.844-106.36 11.162-159.3-6.0661-33.138-19.3-66.636-45.212-89.266-22.758-20.243-54.266-32.74-84.881-27.492-27.9 5.4019-50.438 25.583-65.942 48.538-12.727 17.939-22.27 37.829-32.272 57.345-6.465 1.2448-7.6524-7.1291-11.796-10.232-17.091-20.397-39.952-38.418-67.209-41.409-16.156-1.7297-32.656 1.5012-46.938 9.27zm125.58 44.544c0.2416 0.2003-0.5708-0.0561 0 0z" fill="#280b0b"/>
 </g>
</svg>
