<?xml version="1.0" encoding="UTF-8" standalone="no" ?>
<!DOCTYPE svg PUBLIC "-//W3C//DTD SVG 1.1//EN" "http://www.w3.org/Graphics/SVG/1.1/DTD/svg11.dtd">
<svg xmlns="http://www.w3.org/2000/svg" xmlns:xlink="http://www.w3.org/1999/xlink" version="1.1" width="640" height="640" viewBox="0 0 640 640" xml:space="preserve">
<desc>Created with Fabric.js 5.3.0</desc>
<defs>
</defs>
<g transform="matrix(1 0 0 1 318.1462819733 276.2893014873)" id="nKYA2wE-LSa37tUNMaJLP"  >
<path style="stroke: none; stroke-width: 1; stroke-dasharray: none; stroke-linecap: butt; stroke-dashoffset: 0; stroke-linejoin: miter; stroke-miterlimit: 4; fill: rgb(250,0,0); fill-rule: nonzero; opacity: 1;" vector-effect="non-scaling-stroke"  transform=" translate(-298.9716155143, -467.1464443444)" d="M 404.77 288.4 Q 361.39 285.9204 301.28 344.45799999999997 Q 200.57 280.912 147.53999999999996 292.20099999999996 Q 108.69899999999996 300.06919999999997 91.10199999999996 357.84899999999993 Q 70.37599999999996 436.36799999999994 101.36599999999996 480.0589999999999 Q 109.31809999999996 491.4229999999999 121.58999999999996 502.0289999999999 Q 135.44099999999997 514.3729999999999 167.61099999999996 533.4439999999998 L 296.191 647.7939999999999 Q 489.741 526.4839999999999 509.66099999999994 438.8839999999999 Q 526.7299999999999 379.7909999999999 498.1019999999999 336.9839999999999 Q 464.5379999999999 291.5079999999999 405.36799999999994 288.40199999999993" stroke-linecap="round" />
</g>
<g transform="matrix(1 0 0 1 280.034698086 263.8425417705)" id="nynD2jNsq1H1MJRoGsY6q"  >
<path style="stroke: none; stroke-width: 1; stroke-dasharray: none; stroke-linecap: butt; stroke-dashoffset: 0; stroke-linejoin: miter; stroke-miterlimit: 4; fill: rgb(0,0,0); fill-rule: nonzero; opacity: 1;" vector-effect="non-scaling-stroke"  transform=" translate(-260.860031627, -454.6996846276)" d="M 372.15 339.54 Q 369.2759 339.72867 365.84279999999995 344.54 Q 342.96279999999996 385.079 327.72579999999994 399.85 Q 307.4957999999999 420.96700000000004 279.59379999999993 436.634 Q 253.19179999999994 451.603 217.68379999999993 461.635 Q 188.93779999999992 469.9526 141.0127999999999 478.82099999999997 Q 133.71669999999992 476.97499999999997 129.70479999999992 477.8687 Q 125.20709999999993 478.83619999999996 121.56149999999992 482.40729999999996 L 116.61509999999993 483.33149999999995 L 120.86559999999993 483.2517399999999 Q 110.40559999999994 496.1847399999999 107.77359999999993 518.5207399999999 Q 106.56229999999994 532.79874 111.11299999999993 542.1087399999999 Q 123.06299999999993 564.2347399999999 158.32199999999995 569.4097399999999 Q 169.19499999999994 570.92694 184.88399999999996 563.35304 Q 191.37369999999996 559.41174 208.54299999999995 546.91004 L 298.15799999999996 480.99503999999996 Q 320.68399999999997 464.72903999999994 331.77599999999995 457.51203999999996 Q 344.09499999999997 449.45514 350.2289999999999 447.16004 Q 351.95219999999995 445.80244 364.88899999999995 444.84873999999996 Q 369.78159999999997 443.63993999999997 375.19399999999996 440.99564 Q 386.304 435.48674 394.479 426.77364 Q 417.61699999999996 401.99464 410.34299999999996 355.95264 Q 404.80459999999994 336.23163999999997 393.72299999999996 344.14063999999996 Q 381.359 352.07273999999995 360.16099999999994 387.87163999999996 Q 381.88199999999995 344.45163999999994 372.5779999999999 339.57563999999996" stroke-linecap="round" />
</g>
<g transform="matrix(1 0 0 1 397.5818339018 336.8572413212)" id="NWv-xo9hoGG11zFKF_4Hi"  >
<path style="stroke: none; stroke-width: 1; stroke-dasharray: none; stroke-linecap: butt; stroke-dashoffset: 0; stroke-linejoin: miter; stroke-miterlimit: 4; fill: rgb(0,0,0); fill-rule: nonzero; opacity: 1;" vector-effect="non-scaling-stroke"  transform=" translate(-382.1146034962, -527.7143841783)" d="M 511.23 434.13 Q 507.5047 434.19942 503.4075 436.8762 Q 478.94750000000005 453.25419999999997 466.20450000000005 462.7922 Q 456.65170000000006 469.8866 448.37550000000005 476.6662 Q 409.70550000000003 510.5302 404.0975 513.5812 Q 391.0935 522.756 379.52450000000005 527.2302 Q 364.56450000000007 533.3665 344.49350000000004 533.1560999999999 Q 331.21250000000003 533.8134299999999 284.21350000000007 525.5814999999999 Q 277.1795000000001 524.9516999999998 275.01220000000006 526.6624999999999 Q 271.6840000000001 529.9844999999999 283.63140000000004 536.4626999999999 Q 287.00200000000007 538.1619999999999 291.88250000000005 539.7585999999999 L 312.70750000000004 545.2996999999999 Q 316.08790000000005 546.3412 315.5067 546.8091999999999 Q 315.68686 547.2204399999999 311.88250000000005 547.7810099999999 Q 285.80550000000005 549.89591 275.6695 551.8532099999999 Q 263.0765 554.1042099999999 255.15450000000004 557.5052099999999 Q 237.94250000000005 564.6668099999999 240.37350000000004 579.01321 Q 242.83240000000004 593.7262099999999 257.9875 607.6732099999999 Q 273.2475 620.8132099999999 287.95550000000003 621.1682099999999 Q 299.86650000000003 621.55851 315.5095 613.9051099999999 Q 317.5627 613.63551 360.6435 588.4971099999999 L 377.9895 579.4758099999999 Q 387.23310000000004 574.4179099999999 456.2455 544.5258099999999 L 476.8705 534.7202099999998 Q 493.8805 526.1526099999999 503.4015 518.1072099999999 Q 522.0005 504.17320999999987 523.7825 474.7412099999999 Q 526.231 436.6412099999999 511.78650000000005 434.1462099999999" stroke-linecap="round" />
</g>
<g transform="matrix(1 0 0 1 267.6691729323 327.2180451128)" id="MsNMxN3Jkp6BWd9WauPct"  >
<path style="stroke: rgb(0,0,0); stroke-width: 1; stroke-dasharray: none; stroke-linecap: round; stroke-dashoffset: 0; stroke-linejoin: round; stroke-miterlimit: 10; fill: none; fill-rule: nonzero; opacity: 1;" vector-effect="non-scaling-stroke"  transform=" translate(-267.6691729323, -327.2180451128)" d="M 267.6681729323308 327.21804511278197 L 267.67017293233073 327.21804511278197" stroke-linecap="round" />
</g>
</svg>