<?xml version="1.0" encoding="utf-8"?>
<svg viewBox="439.483 222.201 100.513 89.866" xmlns="http://www.w3.org/2000/svg">
  <g transform="translate(-77.645 -470.69)" stroke="#000" stroke-linecap="round" stroke-linejoin="round">
    <g transform="translate(3.4946 1.8281)" fill="#fff">
      <path d="m159.27 513.63c-0.0476 21.001-21.555 41.915-43.762 40.671-21.748-0.52449-41.19-21.03-39.497-42.928 0.01238-10.524 1.8146-21.834 13.924-30.851 9.0312-7.1945 18.621-8.539 29.588-7.6261 20.904 0.67314 40.632 19.282 39.747 40.734z" stroke-width="2"/>
      <path d="m95.502 519.94c3.4104 26.009 23.557 30.415 35.389 19.062 4.3244-3.5908 7.7947-11.709 8.5269-21.674-14.639 7.0787-29.277 7.05-43.916 2.6118z" stroke-width="2"/>
      <path transform="translate(-89.477 5.092)" d="m201.81 499.13c0 1.5681-1.2712 2.8394-2.8394 2.8394s-2.8394-1.2712-2.8394-2.8394 1.2712-2.8394 2.8394-2.8394 2.8394 1.2712 2.8394 2.8394z" stroke-width="2"/>
      <path transform="matrix(1 0 0 1.0623 -96.029 -24.943)" d="m224.53 498.47c0 1.5469-1.1734 2.8009-2.6209 2.8009s-2.6209-1.254-2.6209-2.8009 1.1734-2.8009 2.6209-2.8009 2.6209 1.254 2.6209 2.8009z" stroke-width="1.9405"/>
    </g>
    <path d="M 388.311 514.109 C 388.677 525.369 384.546 535.526 375.007 542.973 C 366.813 549.37 354.535 555.507 343.613 555.649 C 320.821 555.202 300.74 533.079 303.378 510.253 C 304.217 500.634 310.01 491.461 315.67 483.719 C 324.001 474.423 337.198 471.097 349.635 472.619 C 370.248 474.323 389.195 492.862 388.311 514.108 L 388.311 514.109 Z" stroke-width="2" fill="#fff"/>
    <path d="M 324.511 527.899 C 332.966 528.479 362.884 527.875 367.062 528.592" stroke-width="2" fill="#fff"/>
    <path d="M 339.671 503.177 C 339.671 504.745 338.4 506.016 336.832 506.016 C 335.263 506.016 333.992 504.745 333.992 503.177 C 333.992 501.609 335.263 500.337 336.832 500.337 C 338.4 500.337 339.671 501.609 339.671 503.177 Z" stroke-width="2" fill="#fff"/>
    <path d="M 356.711 503.536 C 356.711 505.179 355.538 506.511 354.09 506.511 C 352.643 506.511 351.469 505.179 351.469 503.536 C 351.469 501.892 352.643 500.56 354.09 500.56 C 355.538 500.56 356.711 501.892 356.711 503.536 Z" stroke-width="1.9405" fill="#fff"/>
    <g transform="translate(-.09642)" fill="#fff">
      <path d="m269.53 513.89c0.20734 9.9912-4.2359 19.19-10.856 26.511-8.3557 9.241-20.363 15.308-32.906 14.159-10.782-0.21131-20.944-5.3768-28.277-13.18-9.2997-7.8623-13.447-19.382-11.116-31.264 1.8919-21.696 23.574-39.639 45.288-36.845 19.609 2.2538 37.09 21.5 37.866 40.619z" stroke-width="2"/>
      <path transform="translate(20.792 4.2622)" d="m201.81 499.13c0 1.5681-1.2712 2.8394-2.8394 2.8394s-2.8394-1.2712-2.8394-2.8394 1.2712-2.8394 2.8394-2.8394 2.8394 1.2712 2.8394 2.8394z" stroke-width="2"/>
      <path transform="matrix(1 0 0 1.0623 15.113 -25.773)" d="m224.53 498.47c0 1.5469-1.1734 2.8009-2.6209 2.8009s-2.6209-1.254-2.6209-2.8009 1.1734-2.8009 2.6209-2.8009 2.6209 1.254 2.6209 2.8009z" stroke-width="1.9405"/>
      <path d="m207.46 520.83c2.3799 12.834 15.166 16.78 27.17 15.697 6.863-0.61938 15.595-5.832 16.691-14.461" stroke-width="2"/>
      <path transform="translate(20.792 4.2622)" d="m201.81 499.13c0 1.5681-1.2712 2.8394-2.8394 2.8394s-2.8394-1.2712-2.8394-2.8394 1.2712-2.8394 2.8394-2.8394 2.8394 1.2712 2.8394 2.8394z" stroke-width="2"/>
      <path transform="matrix(1 0 0 1.0623 15.113 -25.773)" d="m224.53 498.47c0 1.5469-1.1734 2.8009-2.6209 2.8009s-2.6209-1.254-2.6209-2.8009 1.1734-2.8009 2.6209-2.8009 2.6209 1.254 2.6209 2.8009z" stroke-width="1.9405"/>
    </g>
    <g transform="translate(9.0064)">
      <path d="m489 515.22c0.36631 11.26-3.765 21.417-13.304 28.864-8.1936 6.3965-20.472 12.534-31.394 12.676-22.792-0.44671-42.873-22.57-40.235-45.396 0.83879-9.619 6.6323-18.792 12.292-26.534 8.3311-9.2965 21.528-12.622 33.965-11.1 20.613 1.704 39.56 20.243 38.676 41.489z" fill="#fff" stroke-width="2"/>
      <path transform="translate(239.2 6.0095)" d="m201.81 499.13c0 1.5681-1.2712 2.8394-2.8394 2.8394s-2.8394-1.2712-2.8394-2.8394 1.2712-2.8394 2.8394-2.8394 2.8394 1.2712 2.8394 2.8394z" fill="#fff" stroke-width="2"/>
      <path transform="matrix(1 0 0 1.0623 233.52 -24.026)" d="m224.53 498.47c0 1.5469-1.1734 2.8009-2.6209 2.8009s-2.6209-1.254-2.6209-2.8009 1.1734-2.8009 2.6209-2.8009 2.6209 1.254 2.6209 2.8009z" fill="#fff" stroke-width="1.9405"/>
      <path transform="translate(239.2 6.0095)" d="m201.81 499.13c0 1.5681-1.2712 2.8394-2.8394 2.8394s-2.8394-1.2712-2.8394-2.8394 1.2712-2.8394 2.8394-2.8394 2.8394 1.2712 2.8394 2.8394z" fill="#fff" stroke-width="2"/>
      <path transform="matrix(1 0 0 1.0623 233.52 -24.026)" d="m224.53 498.47c0 1.5469-1.1734 2.8009-2.6209 2.8009s-2.6209-1.254-2.6209-2.8009 1.1734-2.8009 2.6209-2.8009 2.6209 1.254 2.6209 2.8009z" fill="#fff" stroke-width="1.9405"/>
      <path d="m425.47 533.42c13.687-14.432 35.237-14.474 42.809 0" fill="none" stroke-width="2"/>
    </g>
    <g transform="translate(10)">
      <path d="m599.95 514.35c0.36631 11.26-3.765 21.417-13.304 28.864-9.0498 8.1089-20.702 12.994-31.394 12.676-22.792-0.44671-42.873-22.57-40.235-45.396 0.83879-9.619 5.7587-20.54 12.292-26.534 9.1568-8.4708 21.807-12.342 33.965-11.1 20.613 1.704 39.56 20.243 38.676 41.489z" fill="#fff" stroke-width="2"/>
      <path transform="translate(349.28 2.0781)" d="m201.81 499.13c0 1.5681-1.2712 2.8394-2.8394 2.8394s-2.8394-1.2712-2.8394-2.8394 1.2712-2.8394 2.8394-2.8394 2.8394 1.2712 2.8394 2.8394z" fill="#fff" stroke-width="2"/>
      <path transform="matrix(1 0 0 1.0623 343.6 -27.957)" d="m224.53 498.47c0 1.5469-1.1734 2.8009-2.6209 2.8009s-2.6209-1.254-2.6209-2.8009 1.1734-2.8009 2.6209-2.8009 2.6209 1.254 2.6209 2.8009z" fill="#fff" stroke-width="1.9405"/>
      <path transform="translate(349.28 2.0781)" d="m201.81 499.13c0 1.5681-1.2712 2.8394-2.8394 2.8394s-2.8394-1.2712-2.8394-2.8394 1.2712-2.8394 2.8394-2.8394 2.8394 1.2712 2.8394 2.8394z" fill="#fff" stroke-width="2"/>
      <path transform="matrix(1 0 0 1.0623 343.6 -27.957)" d="m224.53 498.47c0 1.5469-1.1734 2.8009-2.6209 2.8009s-2.6209-1.254-2.6209-2.8009 1.1734-2.8009 2.6209-2.8009 2.6209 1.254 2.6209 2.8009z" fill="#fff" stroke-width="1.9405"/>
      <path d="m534.67 537.79c13.68-3.2394 27.7-4.7767 43.682 3.4946-6.9074-34.448-37.328-32.245-43.682-3.4946z" fill="none" stroke-width="2"/>
    </g>
    <path d="m163.82 625.54c0.36631 11.26-2.8384 21.109-12.377 28.555-8.3026 8.8562-21.618 13.313-32.321 12.985-23.101-2.2796-42.873-22.746-40.235-45.396 0.83879-9.619 5.7587-20.54 12.292-26.534 9.1568-8.4708 21.807-12.342 33.965-11.1 20.613 1.704 39.56 20.243 38.676 41.489z" fill="#fff" stroke-width="2"/>
    <path d="m131.58 641.55c0.20411 6.6464-7.046 12.041-13.383 10.244-5.4715-1.2355-9.544-7.2302-7.9513-12.762 1.3904-5.8468 8.1996-9.4451 13.838-7.5132 4.2274 1.3663 7.6292 5.4851 7.4965 10.032z" fill="#fff" stroke-width="2"/>
    <path transform="matrix(1.44 0 0 1.3121 -177.62 -40.237)" d="m201.81 499.13c0 1.5681-1.2712 2.8394-2.8394 2.8394s-2.8394-1.2712-2.8394-2.8394 1.2712-2.8394 2.8394-2.8394 2.8394 1.2712 2.8394 2.8394z" fill="#fff" stroke-width="1.455"/>
    <path transform="matrix(1.44 0 0 1.5538 -186.62 -160.72)" d="m224.53 498.47c0 1.5469-1.1734 2.8009-2.6209 2.8009s-2.6209-1.254-2.6209-2.8009 1.1734-2.8009 2.6209-2.8009 2.6209 1.254 2.6209 2.8009z" fill="#fff" stroke-width="1.337"/>
    <g transform="translate(3.266 .6169)" fill="#fff">
      <path d="m269.76 624.93c0.36631 11.26-3.4561 22.344-12.995 29.791-9.0498 8.1089-21.01 12.067-31.703 11.75-10.204-0.80224-21.263-5.1606-27.856-12.112-9.1596-9.6577-13.993-19.76-12.379-33.283 0.83879-9.619 5.7587-20.54 12.292-26.534 9.1568-8.4708 21.807-12.342 33.965-11.1 19.372 0.46369 39.285 19.967 38.676 41.489z" stroke-width="2"/>
      <path transform="translate(21.101 114.38)" d="m201.81 499.13c0 1.5681-1.2712 2.8394-2.8394 2.8394s-2.8394-1.2712-2.8394-2.8394 1.2712-2.8394 2.8394-2.8394 2.8394 1.2712 2.8394 2.8394z" stroke-width="2"/>
      <path transform="matrix(1 0 0 1.0071 15.166 111.37)" d="m224.53 498.47c0 1.5469-1.1734 2.8009-2.6209 2.8009s-2.6209-1.254-2.6209-2.8009 1.1734-2.8009 2.6209-2.8009 2.6209 1.254 2.6209 2.8009z" stroke-width="1.9929"/>
      <path d="m204.48 636.61c5.9014-3.4455 9.2473-4.627 14.826 0.61776 6.1652 3.6591 12.263 2.7207 16.988 0 6.7981-3.4848 10.837-4.3716 15.135-1.2355" stroke-width="2"/>
    </g>
    <g transform="translate(.30737 1.8524)" fill="#fff">
      <path d="m381.89 623.69c0.36631 11.26-3.4561 22.344-12.995 29.791-9.0498 8.1089-21.01 12.067-31.703 11.75-10.204-0.80224-21.263-5.1606-27.856-12.112-9.1596-9.6577-13.993-19.76-12.379-33.283 0.83879-9.619 5.7587-20.54 12.292-26.534 9.1568-8.4708 21.807-12.342 33.965-11.1 19.372 0.46369 39.285 19.967 38.676 41.489z" stroke-width="2"/>
      <path transform="translate(133.23 113.15)" d="m201.81 499.13c0 1.5681-1.2712 2.8394-2.8394 2.8394s-2.8394-1.2712-2.8394-2.8394 1.2712-2.8394 2.8394-2.8394 2.8394 1.2712 2.8394 2.8394z" stroke-width="2"/>
      <path transform="matrix(1 0 0 1.0071 127.3 110.13)" d="m224.53 498.47c0 1.5469-1.1734 2.8009-2.6209 2.8009s-2.6209-1.254-2.6209-2.8009 1.1734-2.8009 2.6209-2.8009 2.6209 1.254 2.6209 2.8009z" stroke-width="1.9929"/>
      <path d="m316.58 636.43c5.6408-4.2693 7.804-11.632 14.839-0.0191 6.77 13.946 12.657 8.9088 16.973-0.72911 5.5753-11.712 12.22-9.111 17.269-1.5413" stroke-width="2"/>
    </g>
    <g transform="translate(8.023 1.8524)" fill="#fff" stroke-width="2">
      <path d="m489.35 623.69c0.36631 11.26-3.4561 22.344-12.995 29.791-9.0498 8.1089-21.01 12.067-31.703 11.75-9.7146-0.80224-20.594-5.1606-27.856-12.112-9.1596-9.6577-13.993-19.76-12.379-33.283 0.83879-9.619 5.7587-20.54 12.292-26.534 9.1568-7.9364 21.807-11.714 33.965-11.1 19.372 0.46369 39.285 19.967 38.676 41.489z"/>
      <path d="m430.49 611.39 11.576 0.21841"/>
      <path d="m452.99 611.39 11.357-0.21841"/>
      <path d="m426.35 640.56c7.3473-0.31511 14.684-1.0225 22.045-0.82082l19.426-0.72332"/>
    </g>
    <g transform="translate(8.6264 4.3235)" fill="#fff" stroke-width="2">
      <path d="m600.55 621.22c0.36631 11.26-3.4561 22.344-12.995 29.791-9.0498 8.1089-21.01 12.067-31.703 11.75-9.7146-0.80224-20.594-5.1606-27.856-12.112-9.1596-9.6577-13.993-19.76-12.379-33.283 0.83879-9.619 5.7587-20.54 12.292-26.534 9.1568-7.9364 21.807-11.714 33.965-11.1 19.372 0.46369 39.285 19.967 38.676 41.489z"/>
      <path d="m542.3 610.15 10.958 5.1605"/>
      <path d="m567.27 615.1 9.5041-4.5427"/>
      <path d="m538.59 640.47c20.379-9.5631 26.975 2.8973 41.864-0.28451"/>
      <path d="m542.3 610.15 10.958 5.1605"/>
      <path d="m567.27 615.1 9.5041-4.5427"/>
      <path d="m538.59 640.47c20.379-9.5631 26.975 2.8973 41.864-0.28451"/>
    </g>
    <g transform="translate(0,.73826)" fill="#fff">
      <path d="m165.31 737c0.36631 11.26-3.4561 22.344-12.995 29.791-9.0498 8.1089-21.01 12.067-31.703 11.75-9.7146-0.80224-20.594-5.1606-27.856-12.112-9.1596-9.6577-13.993-19.76-12.379-33.283 0.83879-9.619 5.7587-20.54 12.292-26.534 9.1568-7.9364 21.807-11.714 33.965-11.1 19.372 0.46369 39.285 19.967 38.676 41.489z" stroke-width="2"/>
      <path transform="translate(-82.586 228.16)" d="m201.81 499.13c0 1.5681-1.2712 2.8394-2.8394 2.8394s-2.8394-1.2712-2.8394-2.8394 1.2712-2.8394 2.8394-2.8394 2.8394 1.2712 2.8394 2.8394z" stroke-width="2"/>
      <path transform="matrix(1 0 0 1.0071 -89.138 225.15)" d="m224.53 498.47c0 1.5469-1.1734 2.8009-2.6209 2.8009s-2.6209-1.254-2.6209-2.8009 1.1734-2.8009 2.6209-2.8009 2.6209 1.254 2.6209 2.8009z" stroke-width="1.9929"/>
      <path d="m145.44 755.13c0.10429 3.3519-3.6004 6.0727-6.8384 5.1662-2.7958-0.62308-4.8768-3.6463-4.063-6.4362 0.71049-2.9487 4.1898-4.7633 7.0708-3.789 2.1601 0.68906 3.8984 2.7662 3.8306 5.0591z" stroke-width="2"/>
    </g>
    <g transform="translate(1.2008)" fill="#fff">
      <path d="m275.09 737.72c0.36631 11.26-3.4561 22.344-12.995 29.791-12.488 10.172-21.01 12.067-31.703 11.75-9.7146-0.80224-20.594-5.1606-27.856-12.112-9.1596-9.6577-13.993-19.76-12.379-33.283 0.83879-9.619 5.7587-20.54 12.292-26.534 9.1568-7.9364 21.807-11.714 33.965-11.1 18.682 0.46369 38.819 19.967 38.676 41.489z" stroke-width="2"/>
      <path transform="matrix(1 0 0 1.0071 19.767 224.12)" d="m224.53 498.47c0 1.5469-1.1734 2.8009-2.6209 2.8009s-2.6209-1.254-2.6209-2.8009 1.1734-2.8009 2.6209-2.8009 2.6209 1.254 2.6209 2.8009z" stroke-width="1.9929"/>
      <path d="m219.64 726.34 7.2076-0.21841" stroke-width="2"/>
      <path d="m213.9 742.77c1.7676 5.9104 16.938 38.01 34.366 8.4252z" stroke-width="2"/>
    </g>
    <g transform="translate(2.6758 3.3592)" fill="#fff" stroke-width="2">
      <path d="m384.59 734.38c0.36631 11.26-3.4561 22.344-12.995 29.791-9.0498 8.1089-21.01 12.067-31.703 11.75-9.7146-0.80224-20.594-5.1606-27.856-12.112-9.1596-9.6577-13.993-19.76-12.379-33.283 0.83879-9.619 5.7587-20.54 12.292-26.534 9.1568-7.9364 21.807-11.714 33.965-11.1 19.372 0.46369 39.285 19.967 38.676 41.489z"/>
      <path d="m327.41 721.24 9.2664 10.502"/>
      <path d="m339.77 720.62-12.973 10.502"/>
      <path d="m350.89 722.48 8.0309 10.502"/>
      <path d="m359.9 722.12-10.246 10.246"/>
      <path d="m330.72 752.3 23.426-1.1038"/>
    </g>
    <g transform="translate(2.4592 5.8302)" fill="#fff" stroke-width="2">
      <path d="m495.79 731.91c0.36631 11.26-3.4561 22.344-12.995 29.791-9.0498 8.1089-21.01 12.067-31.703 11.75-9.7146-0.80224-20.594-5.1606-27.856-12.112-9.1596-9.6577-13.993-19.76-12.379-33.283 0.83879-9.619 5.7587-20.54 12.292-26.534 9.1568-7.9364 21.807-11.714 33.965-11.1 19.372 0.46369 39.285 19.967 38.676 41.489z"/>
      <path d="m438.61 723.71c5.5625-6.1935 9.649-3.531 13.591 0"/>
      <path d="m460.85 723.1c4.9421-4.9421 9.0605-4.9421 12.355 0"/>
      <path d="m435.52 744.72c13.893 16.669 31.455 11.329 40.772 0.61776"/>
    </g>
    <g transform="translate(0,6.554)" stroke-width="2">
      <path d="m609.23 731.18c0.36631 11.26-3.4561 22.344-12.995 29.791-9.0498 8.1089-21.01 12.067-31.703 11.75-10.204-0.80224-21.263-5.1606-27.856-12.112-9.1596-9.6577-13.993-19.76-12.379-33.283 0.83879-9.619 5.7587-20.54 12.292-26.534 9.1568-8.4708 21.807-12.342 33.965-11.1 19.372 0.46369 39.285 19.967 38.676 41.489z" fill="#fff"/>
      <path d="m546.03 750.08c13.687-14.432 35.237-14.474 42.809 0" fill="none"/>
      <path d="m551.31 719.35c5.5625-6.1935 9.649-3.531 13.591 0" fill="#fff"/>
      <path d="m573.55 718.73c4.9421-4.9421 9.0605-4.9421 12.355 0" fill="#fff"/>
    </g>
  </g>
</svg>