<?xml version="1.0" encoding="utf-8"?>
<svg version="1.1" width="1080" height="1080" viewBox="0 0 1080 1080" xmlns="http://www.w3.org/2000/svg">
  <desc>Created with Fabric.js 4.2.0</desc>
  <rect x="0" y="0" width="100%" height="100%" fill="transparent"/>
  <g transform="matrix(1 0 0 1 540 540)" id="319be9c0-9042-4caf-8d80-cc4d669a242b"/>
  <g transform="matrix(1 0 0 1 540 540)" id="ef2ba0f4-04ff-479e-8779-451a79fbbf69">
    <rect style="stroke: none; stroke-width: 1; stroke-dasharray: none; stroke-linecap: butt; stroke-dashoffset: 0; stroke-linejoin: miter; stroke-miterlimit: 4; fill: rgb(255,255,255); fill-opacity: 0; fill-rule: nonzero; opacity: 1;" vector-effect="non-scaling-stroke" x="-540" y="-540" rx="0" ry="0" width="1080" height="1080"/>
  </g>
  <g transform="matrix(7.026932, 0, 0, 7.64, 504.992981, 522.403259)" id="66ed5c40-4362-4fd0-b2f9-bc87d7ada6ed" style="">
    <path style="stroke: rgb(0,0,0); stroke-width: 0; stroke-dasharray: none; stroke-linecap: butt; stroke-dashoffset: 0; stroke-linejoin: miter; stroke-miterlimit: 4; fill: rgb(0,0,0); fill-rule: nonzero; opacity: 1;" vector-effect="non-scaling-stroke" transform=" translate(-50, -50)" d="M 29.366 58.748 C 29.684 59.519 30.39 60.031 31.159 60.159 L 31.993 60.159 C 32.951 60.031 33.72 59.260999999999996 33.976 58.364 L 33.976 16.706 C 33.976 14.59 35.707 13.82 37.504 13.692 C 39.425 13.692 41.607 14.207 41.607 16.706 L 41.607 45.483000000000004 C 41.991 46.316 42.888 46.956 43.912 46.956 C 45.003 46.956 45.899 46.252 46.222 45.227000000000004 L 46.222 36.894000000000005 C 46.222 32.791000000000004 53.848 32.85600000000001 53.848 36.894000000000005 L 53.848 45.547000000000004 C 54.232 46.38 55.062 46.956 56.025 46.956 C 57.178 46.956 58.14 46.187000000000005 58.463 45.097 L 58.463 40.162 C 58.976 36.51 66.024 36.702 66.024 40.612 L 66.024 45.547000000000004 C 66.409 46.38 67.305 46.956 68.267 46.956 C 69.42 46.956 70.321 46.187000000000005 70.639 45.227000000000004 L 70.639 43.176 C 70.639 39.138000000000005 78.265 39.138000000000005 78.265 43.176 L 78.265 79.32300000000001 C 78.265 83.23100000000001 75.125 86.30900000000001 71.217 86.30900000000001 L 38.786 86.30900000000001 C 36.286 86.30900000000001 34.299 84.51400000000001 33.275 82.91100000000002 L 28.209999999999997 75.09300000000002 L 22.508999999999997 66.44000000000001 C 22.058999999999997 65.73600000000002 21.737 64.96700000000001 21.737 61.76100000000001 L 21.737 46.827 C 21.737 42.726 29.368 42.726 29.368 46.827 L 29.368 58.748 z" stroke-linecap="round"/>
  </g>
  <text style="font-family: Arial, sans-serif; font-size: 60.1px; white-space: pre;" x="498.131" y="309.185">tickle</text>
  <text style="font-family: Arial, sans-serif; font-size: 60.1px; white-space: pre;" x="605.487" y="386.481">tickle</text>
</svg>