<?xml version="1.0" encoding="UTF-8" standalone="no" ?>
<!DOCTYPE svg PUBLIC "-//W3C//DTD SVG 1.1//EN" "http://www.w3.org/Graphics/SVG/1.1/DTD/svg11.dtd">
<svg xmlns="http://www.w3.org/2000/svg" xmlns:xlink="http://www.w3.org/1999/xlink" version="1.1" width="640" height="640" viewBox="0 0 640 640" xml:space="preserve">
<desc>Created with Fabric.js 5.3.0</desc>
<defs>
</defs>
<g transform="matrix(0.0201018889 -1.1516364455 1.0224702444 0.0178472845 339.906784214 279.4852199481)" id="ILufGkOJOYY-rklRVu4tv"  >
<path style="stroke: none; stroke-width: 1; stroke-dasharray: none; stroke-linecap: butt; stroke-dashoffset: 0; stroke-linejoin: miter; stroke-miterlimit: 4; fill: rgb(239,62,54); fill-opacity: 0.9; fill-rule: nonzero; opacity: 1;" vector-effect="non-scaling-stroke"  transform=" translate(-337.8395, -312.327)" d="M 575.035 24.654 L 508.69599999999997 374.531 L 351.92499999999995 402.129 L 354.06899999999996 399.385 L 296.36899999999997 412.07099999999997 L 324.741 378.29699999999997 L 486.176 349.878 L 547.728 25.24799999999999 L 575.035 24.654 z M 254.172 388.751 L 100.644 413.793 L 104.54100000000001 441.484 L 231.674 420.74699999999996 L 254.172 388.751 z M 270.671 527.982 L 289.412 493.503 L 281.68399999999997 495.34299999999996 L 257.046 531.226 L 270.671 527.982 z M 274.151 448.86 L 247.407 455.05600000000004 L 222.316 490.74 L 249.761 484.383 L 274.151 448.86 z M 352.443 454.947 L 376.589 424.039 L 326.142 435.13 L 302.915 464.859 L 352.443 454.947 z M 333.027 479.799 L 293.642 522.5129999999999 L 311.933 518.1589999999999 L 267.447 600 L 379.256 478.741 L 325.43899999999996 489.512 L 333.027 479.799 z" stroke-linecap="round" />
</g>
<g transform="matrix(0.0201018889 -1.1516364455 1.0224702444 0.0178472845 297.0907701484 328.6943699957)" id="JQmTdVbEZ0KBDwuX26y_-"  >
<path style="stroke: none; stroke-width: 1; stroke-dasharray: none; stroke-linecap: butt; stroke-dashoffset: 0; stroke-linejoin: miter; stroke-miterlimit: 4; fill: rgb(255,255,255); fill-opacity: 0.8; fill-rule: nonzero; opacity: 1;" vector-effect="non-scaling-stroke"  transform=" translate(-294.474, -271.3045)" d="M 334.835 347.006 L 271.93399999999997 426.23499999999996 L 333.60699999999997 412.06999999999994 L 287.775 474.27099999999996 L 328.697 467.72299999999996 L 281.637 525.4219999999999 L 309.377 480.2499999999999 L 263.648 489.7649999999999 L 299.25 431.7589999999999 L 231.322 447.9689999999999 L 273.704 382.52499999999986 L 294.032 370.37699999999984 L 94.705 403.478 L 59.351 33.864 L 529.597 17.186999999999998 L 475.99 340.466 L 333.198 364.60200000000003 L 334.835 347.006 z" stroke-linecap="round" />
</g>
<g transform="matrix(0.0201018889 -1.1516364455 1.0224702444 0.0178472845 313.7123012461 335.5911472105)" id="Tkr79U4T9l2XO_iw7sA4s"  >
<path style="stroke: none; stroke-width: 1; stroke-dasharray: none; stroke-linecap: butt; stroke-dashoffset: 0; stroke-linejoin: miter; stroke-miterlimit: 4; fill: rgb(0,0,0); fill-opacity: 0.9; fill-rule: nonzero; opacity: 1;" vector-effect="non-scaling-stroke"  transform=" translate(-288.739, -287.6735)" d="M 486.175 349.878 L 552.513 0 L 24.965 11.451 L 82.019 416.83 L 254.172 388.751 L 199.795 466.087 L 274.152 448.86 L 234.52499999999998 506.572 L 289.41299999999995 493.504 L 244.92699999999996 575.347 L 356.736 454.08799999999997 L 302.918 464.859 L 354.07 399.384 L 296.37 412.07 L 324.743 378.296 L 486.175 349.878 z M 287.775 474.271 L 328.697 467.723 L 281.637 525.422 L 309.377 480.25 L 263.648 489.765 L 299.25 431.759 L 231.322 447.969 L 273.704 382.525 L 294.032 370.37699999999995 L 94.705 403.478 L 59.351 33.864 L 529.597 17.186999999999998 L 475.99 340.466 L 333.198 364.60200000000003 L 334.835 347.00600000000003 L 271.93399999999997 426.235 L 333.60699999999997 412.07 L 287.775 474.271 z M 339.395 464.395 C 339.35999999999996 464.502 339.195 464.61199999999997 338.928 464.72499999999997 C 339.26 464.417 339.43 464.292 339.395 464.395 z" stroke-linecap="round" />
</g>
</svg>