<?xml version="1.0" encoding="utf-8"?>
<svg version="1.1" viewBox="0 0 159.31 128.05" xmlns="http://www.w3.org/2000/svg">
  <path d="M 142.357 83 L 150.764 35.8 C 151.564 31.3 148.362 27.8 138.453 25.3 L 97.326 15.1 C 93.821 11.2 92.72 0.7 95.722 0 C 95.722 0 129.148 3.1 146.558 4.6 C 150.662 5 156.969 10.9 157.169 15.2 L 159.367 72.3 L 142.357 83 Z M 112.932 26.3 L 101.127 85.4 L 105.528 86.4 L 118.24 29 C 119.039 25.5 146.558 30.9 145.856 34.7 L 132.75 108.7 C 132.048 112.6 123.84 127.4 120.94 127 L 105.431 124.6 C 101.624 124 100.625 119.7 95.322 118.7 C 90.619 117.8 84.414 128.9 80.208 128 L 64.699 124.5 C 60.395 123.5 60.195 113.9 55.492 112.6 C 50.691 111.2 47.586 115.2 44.184 114.2 L 32.077 110.7 C 27.174 109.3 27.071 98 22.368 96 C 18.064 94.2 14.365 97.3 11.157 95.2 L 1.254 88.7 C -1.047 87.3 0.152 71.2 1.351 68.1 L 19.862 16.5 C 20.861 13.7 41.479 18.6 40.777 21.3 L 27.871 69.3 L 32.272 70.3 L 47.781 13.3 C 48.585 10.2 75.105 15.8 74.403 18.9 C 70.099 38.2 61.594 76.7 61.594 76.7 L 65.995 77.7 L 79.706 19 C 80.505 15.8 113.731 22.6 112.927 26.3 L 112.932 26.3 Z" style="" transform="matrix(-1, 0, 0, -1, 159.314461, 128.051971)"/>
  <text style="fill: rgb(255, 0, 0); font-family: Arial, sans-serif; font-size: 146px; white-space: pre;" x="30.893" y="108.811">X</text>
</svg>