<?xml version="1.0" encoding="utf-8"?>
<svg version="1.1" width="1080" height="1080" viewBox="0 0 1080 1080" xmlns="http://www.w3.org/2000/svg">
  <desc>Created with Fabric.js 4.2.0</desc>
  <g transform="matrix(1 0 0 1 540 540)" id="a6332bb7-7540-4acb-bab0-9f9438361434">
    <rect style="stroke: none; stroke-width: 1; stroke-dasharray: none; stroke-linecap: butt; stroke-dashoffset: 0; stroke-linejoin: miter; stroke-miterlimit: 4; fill: rgb(255,255,255); fill-opacity: 0; fill-rule: nonzero; opacity: 1;" vector-effect="non-scaling-stroke" x="-540" y="-540" rx="0" ry="0" width="1080" height="1080"/>
  </g>
  <g transform="matrix(1 0 0 1 540 540)" id="3dd693d4-7310-4bdf-8fcb-263c4bc99e2a"/>
  <g transform="matrix(-8.15246, 0, 0, 8.16, 406.870575, 540)" id="6af4470b-8195-4dbd-8476-529acbda2b1c" style="">
    <path style="stroke: rgb(0,0,0); stroke-width: 0; stroke-dasharray: none; stroke-linecap: butt; stroke-dashoffset: 0; stroke-linejoin: miter; stroke-miterlimit: 4; fill: rgb(0,0,0); fill-rule: nonzero; opacity: 1;" vector-effect="non-scaling-stroke" transform=" translate(-50, -50)" d="M 24.321 68.785 L 29.603 76.88499999999999 L 34.34 84.26299999999999 C 35.29900000000001 85.701 37.221000000000004 87.442 39.56100000000001 87.442 L 69.917 87.442 C 73.514 87.442 76.456 84.50399999999999 76.456 80.842 L 76.456 30.931 C 76.456 27.151 69.313 27.151 69.313 30.931 L 69.313 48.988 C 69.016 49.889 68.176 50.549 67.156 50.549 C 66.197 50.549 65.41600000000001 50.009 65.05600000000001 49.168 L 65.05600000000001 22.232 C 65.05600000000001 18.633 58.39700000000001 18.392 57.91700000000001 21.872 L 57.91700000000001 49.108000000000004 C 57.55800000000001 49.949000000000005 56.71800000000001 50.548 55.75500000000001 50.548 C 54.73800000000001 50.548 53.89500000000001 49.889 53.59800000000001 48.987 L 53.65600000000001 15.392000000000003 C 53.65600000000001 11.612000000000004 46.51700000000001 11.612000000000004 46.51700000000001 15.392000000000003 L 46.51700000000001 49.167 C 46.15700000000001 50.008 45.31800000000001 50.548 44.41700000000001 50.548 C 43.33800000000001 50.548 42.43700000000001 49.889 42.19800000000001 48.927 L 42.19800000000001 22.232 C 42.19800000000001 18.454 35.059000000000005 18.454 35.059000000000005 22.232 L 35.059000000000005 58.825 L 35.001000000000005 58.825 L 35.001000000000005 61.287000000000006 C 34.761 62.126000000000005 34.042 62.785000000000004 33.199000000000005 62.90500000000001 L 32.422000000000004 62.90500000000001 C 31.641000000000005 62.78500000000001 30.979000000000003 62.24500000000001 30.682000000000006 61.586000000000006 L 30.682000000000006 50.429 C 30.682000000000006 46.589 23.543000000000006 46.589 23.543000000000006 50.429 L 23.543000000000006 64.406 C 23.543 67.404 23.903 68.126 24.321 68.785 z" stroke-linecap="round"/>
  </g>
  <text style="font-family: Arial, sans-serif; font-size: 200px; white-space: pre;" x="169.622" y="334.95">"</text>
  <text style="font-family: Arial, sans-serif; font-size: 200px; white-space: pre;" x="392.922" y="281.272">"</text>
  <text style="font-family: Arial, sans-serif; font-size: 200px; white-space: pre;" x="551.809" y="422.982">"</text>
</svg>